HIERARCHY
ROOT Hips
{
    OFFSET 0.000000 0.000000 0.000000
    CHANNELS 6 Xposition Yposition Zposition Zrotation Xrotation Yrotation
    JOINT Spine
    {
        OFFSET -0.000000 14.517291 0.000000
        CHANNELS 3 Zrotation Xrotation Yrotation
        JOINT Spine1
        {
            OFFSET -0.000000 37.558300 0.000000
            CHANNELS 3 Zrotation Xrotation Yrotation
            JOINT Neck
            {
                OFFSET -0.000000 37.404057 3.400369
                CHANNELS 3 Zrotation Xrotation Yrotation
                JOINT Head
                {
                    OFFSET -0.000000 24.785618 -3.540803
                    CHANNELS 3 Zrotation Xrotation Yrotation
                    End Site
                    {
                        OFFSET -0.000000 35.408028 0.000000
                    }
                }
            }
            JOINT LeftShoulder
            {
                OFFSET 6.992933 33.973492 -0.192664
                CHANNELS 3 Zrotation Xrotation Yrotation
                JOINT LeftArm
                {
                    OFFSET 21.527611 0.000000 0.000000
                    CHANNELS 3 Zrotation Xrotation Yrotation
                    JOINT LeftForeArm
                    {
                        OFFSET 56.353916 0.000000 0.000000
                        CHANNELS 3 Zrotation Xrotation Yrotation
                        JOINT LeftHand
                        {
                            OFFSET 47.774071 0.000000 0.000000
                            CHANNELS 3 Zrotation Xrotation Yrotation
                            End Site
                            {
                                OFFSET 26.556021 0.000000 0.000000
                            }
                        }
                    }
                }
            }
            JOINT RightShoulder
            {
                OFFSET -7.065357 33.973492 -0.192664
                CHANNELS 3 Zrotation Xrotation Yrotation
                JOINT RightArm
                {
                    OFFSET -21.527611 0.000000 0.000000
                    CHANNELS 3 Zrotation Xrotation Yrotation
                    JOINT RightForeArm
                    {
                        OFFSET -56.353916 0.000000 0.000000
                        CHANNELS 3 Zrotation Xrotation Yrotation
                        JOINT RightHand
                        {
                            OFFSET -47.774071 0.000000 0.000000
                            CHANNELS 3 Zrotation Xrotation Yrotation
                            End Site
                            {
                                OFFSET -26.556021 0.000000 0.000000
                            }
                        }
                    }
                }
            }
        }
    }
    JOINT LeftUpLeg
    {
        OFFSET 17.704014 0.000000 0.000000
        CHANNELS 3 Zrotation Xrotation Yrotation
        JOINT LeftLeg
        {
            OFFSET -0.000000 -81.181816 0.000000
            CHANNELS 3 Zrotation Xrotation Yrotation
            JOINT LeftFoot
            {
                OFFSET -0.000000 -62.821102 0.000000
                CHANNELS 3 Zrotation Xrotation Yrotation
                JOINT LeftToeBase
                {
                    OFFSET -0.000000 -11.507608 26.556021
                    CHANNELS 3 Zrotation Xrotation Yrotation
                    End Site
                    {
                        OFFSET -0.000000 0.000000 7.081605
                    }
                }
            }
        }
    }
    JOINT RightUpLeg
    {
        OFFSET -17.704014 0.000000 0.000000
        CHANNELS 3 Zrotation Xrotation Yrotation
        JOINT RightLeg
        {
            OFFSET -0.000000 -81.181816 0.000000
            CHANNELS 3 Zrotation Xrotation Yrotation
            JOINT RightFoot
            {
                OFFSET -0.000000 -62.821102 0.000000
                CHANNELS 3 Zrotation Xrotation Yrotation
                JOINT RightToeBase
                {
                    OFFSET -0.000000 -11.507608 26.556021
                    CHANNELS 3 Zrotation Xrotation Yrotation
                    End Site
                    {
                        OFFSET -0.000000 0.000000 7.081605
                    }
                }
            }
        }
    }
}
MOTION
Frames:    13
Frame Time:    0.008333
-2.020132    157.037277    -23.528954    -1.000349    -2.837801    -34.719902    3.882457    0.279522    2.390141    -1.261471    0.576281    0.805682    15.447177    2.333754    13.624710    -8.566518    3.543713    11.254457    -0.965785    9.514769    -11.320793    -39.494541    12.387128    -36.058491    41.771172    -47.390732    -42.844933    -18.283031    -30.922644    -25.207891    -7.354301    -0.699628    0.702688    47.037949    -17.998070    79.827255    -12.181804    -43.220791    99.533203    19.885483    -26.837770    31.205530    16.760269    -15.607623    6.567269    -12.933730    20.127928    0.722985    -4.635848    -0.931797    33.034538    0.000000    0.000000    0.000000    -11.579055    1.697133    -7.120265    5.871437    27.904890    -0.433406    3.563113    -22.313467    -14.353584    0.000000    0.000000    0.000000    
-2.018085    157.039124    -23.524111    -1.008012    -2.843500    -34.720161    3.891755    0.276569    2.390910    -1.263701    0.585591    0.806019    15.440768    2.342127    13.620252    -8.569655    3.510767    11.249012    -0.967405    9.530072    -11.316036    -39.506145    12.356010    -36.076794    41.735870    -47.378380    -42.869236    -18.249414    -30.920156    -25.194212    -7.359578    -0.699647    0.700822    47.045238    -18.003170    79.838699    -12.178031    -43.218124    99.536827    19.860491    -26.843348    31.209162    16.764759    -15.599403    6.563045    -12.942036    20.128532    0.708825    -4.642809    -0.935946    33.059750    0.000000    0.000000    0.000000    -11.574251    1.709788    -7.126297    5.859056    27.896666    -0.437217    3.581373    -22.306034    -14.339811    0.000000    0.000000    0.000000    
-2.015624    157.038528    -23.525753    -1.004547    -2.838019    -34.720490    3.896173    0.268879    2.390324    -1.274024    0.581607    0.805775    15.433653    2.345168    13.621632    -8.547684    3.488943    11.252585    -0.958647    9.524401    -11.311204    -39.516968    12.384148    -36.078129    41.781662    -47.389595    -42.827778    -18.253733    -30.931618    -25.193190    -7.354449    -0.713225    0.701843    47.039654    -17.986635    79.836685    -12.194474    -43.239841    99.530525    19.873981    -26.852976    31.191805    16.766918    -15.609992    6.569066    -12.945301    20.133583    0.724186    -4.659675    -0.938010    33.057938    0.000000    0.000000    0.000000    -11.575907    1.704835    -7.118651    5.867484    27.889580    -0.460160    3.592681    -22.306293    -14.327492    0.000000    0.000000    0.000000    
-2.017534    157.040039    -23.522385    -1.007609    -2.840316    -34.720463    3.897624    0.259530    2.392049    -1.276167    0.594417    0.806374    15.441437    2.349518    13.618804    -8.555827    3.463883    11.246461    -0.956983    9.526289    -11.309514    -39.522503    12.389462    -36.086288    41.791954    -47.395653    -42.819618    -18.248808    -30.942242    -25.173258    -7.355221    -0.716378    0.699610    47.050377    -17.990194    79.842094    -12.198333    -43.242016    99.529419    19.884109    -26.848705    31.194529    16.767725    -15.604267    6.570102    -12.945906    20.129904    0.729402    -4.646319    -0.928645    33.047634    0.000000    0.000000    0.000000    -11.575054    1.712885    -7.105947    5.871686    27.881405    -0.446884    3.588284    -22.307926    -14.351027    0.000000    0.000000    0.000000    
-2.014285    157.042419    -23.519114    -1.007118    -2.849815    -34.724842    3.891306    0.258750    2.392993    -1.274995    0.602971    0.806733    15.439053    2.347908    13.619552    -8.551876    3.449347    11.246672    -0.953899    9.524215    -11.306002    -39.536919    12.389509    -36.088902    41.776478    -47.402149    -42.839199    -18.212978    -30.959204    -25.151836    -7.351054    -0.720052    0.690552    47.047379    -17.982540    79.855110    -12.205615    -43.247940    99.516701    19.872740    -26.857111    31.175892    16.761347    -15.599430    6.562189    -12.946137    20.137882    0.733724    -4.667099    -0.935172    33.052795    0.000000    0.000000    0.000000    -11.583974    1.723212    -7.092429    5.877193    27.874208    -0.433532    3.528590    -22.272787    -14.326188    0.000000    0.000000    0.000000    
-2.013206    157.044510    -23.513678    -1.010046    -2.857908    -34.726295    3.895398    0.256666    2.397746    -1.283115    0.608299    0.808425    15.444951    2.366765    13.613469    -8.564840    3.412020    11.237949    -0.953220    9.526877    -11.312863    -39.557911    12.363017    -36.087791    41.733440    -47.389065    -42.881435    -18.220867    -30.942783    -25.144938    -7.348718    -0.718571    0.682806    47.061378    -17.981802    79.860603    -12.188352    -43.232582    99.531456    19.862326    -26.857468    31.169439    16.754198    -15.590622    6.557580    -12.940535    20.136751    0.728499    -4.667932    -0.926804    33.069359    0.000000    0.000000    0.000000    -11.585895    1.738205    -7.088922    5.882646    27.860094    -0.452672    3.559485    -22.302929    -14.364673    0.000000    0.000000    0.000000    
-2.013415    157.047241    -23.507578    -1.016711    -2.863244    -34.731194    3.898661    0.254581    2.404083    -1.283502    0.617357    0.810593    15.424046    2.347698    13.604482    -8.526822    3.419496    11.233420    -0.950861    9.532382    -11.316598    -39.571873    12.345858    -36.094814    41.700878    -47.380424    -42.912247    -18.206823    -30.933491    -25.159330    -7.346356    -0.725920    0.673015    47.067081    -17.975754    79.863739    -12.168112    -43.225880    99.549492    19.862679    -26.873198    31.132483    16.756922    -15.582548    6.565926    -12.938481    20.146893    0.709583    -4.667579    -0.927319    33.080570    0.000000    0.000000    0.000000    -11.581010    1.750963    -7.086416    5.870608    27.848722    -0.467892    3.587380    -22.291561    -14.333032    0.000000    0.000000    0.000000    
-2.013718    157.047913    -23.498539    -1.021406    -2.876088    -34.727829    3.899331    0.262328    2.397289    -1.288891    0.617257    0.808454    15.420202    2.347279    13.603106    -8.516888    3.412279    11.232970    -0.952800    9.532701    -11.313218    -39.581783    12.352244    -36.085983    41.720261    -47.372074    -42.909348    -18.252272    -30.904612    -25.178982    -7.344860    -0.728105    0.677801    47.072285    -17.975922    79.861244    -12.156847    -43.216019    99.561829    19.862032    -26.870956    31.131588    16.750568    -15.568571    6.537647    -12.948790    20.141739    0.732882    -4.663203    -0.926813    33.074997    0.000000    0.000000    0.000000    -11.583359    1.776965    -7.111471    5.852469    27.832569    -0.475396    3.610843    -22.292795    -14.291236    0.000000    0.000000    0.000000    
-2.014788    157.049942    -23.491983    -1.024105    -2.880943    -34.723091    3.891088    0.265655    2.395184    -1.279520    0.611357    0.807658    15.437128    2.348216    13.601504    -8.543594    3.406118    11.225805    -0.951836    9.534197    -11.311075    -39.602398    12.351294    -36.081032    41.696381    -47.363739    -42.952400    -18.255882    -30.889051    -25.158724    -7.341663    -0.717870    0.669942    47.063789    -17.977322    79.865158    -12.171022    -43.224720    99.549385    19.875883    -26.864769    31.136925    16.746300    -15.563342    6.528342    -12.947502    20.140381    0.750453    -4.672718    -0.929303    33.062202    0.000000    0.000000    0.000000    -11.581235    1.789608    -7.128114    5.841045    27.825274    -0.446418    3.597156    -22.286299    -14.314878    0.000000    0.000000    0.000000    
-2.014403    157.054565    -23.484348    -1.028602    -2.884758    -34.723667    3.893950    0.265465    2.391558    -1.279233    0.612451    0.806506    15.454786    2.359439    13.603358    -8.571740    3.385146    11.222306    -0.952199    9.538882    -11.302175    -39.613422    12.345474    -36.083569    41.670311    -47.349499    -42.982586    -18.260750    -30.867905    -25.164349    -7.334769    -0.723797    0.671378    47.035309    -17.965824    79.855980    -12.195742    -43.245724    99.528954    19.873573    -26.864656    31.161915    16.747717    -15.554264    6.516378    -12.954504    20.136713    0.758894    -4.679556    -0.930670    33.062546    0.000000    0.000000    0.000000    -11.577831    1.798411    -7.109630    5.847751    27.816378    -0.475554    3.590289    -22.272058    -14.315688    0.000000    0.000000    0.000000    
-2.015144    157.052780    -23.477667    -1.026274    -2.885435    -34.718151    3.886544    0.258630    2.380951    -1.272897    0.613923    0.802825    15.458282    2.353796    13.600886    -8.574466    3.386277    11.218268    -0.955160    9.545776    -11.293318    -39.626686    12.332454    -36.080921    41.629406    -47.349678    -43.035843    -18.267862    -30.863712    -25.155416    -7.331061    -0.730596    0.682291    47.036316    -17.969704    79.847145    -12.206996    -43.240429    99.524483    19.886604    -26.843582    31.162153    16.746037    -15.557680    6.495141    -12.966175    20.139471    0.773397    -4.688078    -0.942311    33.068710    0.000000    0.000000    0.000000    -11.578226    1.800828    -7.121019    5.837833    27.817963    -0.487005    3.613663    -22.275852    -14.294942    0.000000    0.000000    0.000000    
-2.013074    157.053131    -23.474663    -1.026419    -2.881278    -34.715981    3.886231    0.254745    2.379129    -1.264668    0.607502    0.802104    15.438630    2.351669    13.595043    -8.554874    3.380069    11.216136    -0.962817    9.550953    -11.291446    -39.605053    12.373446    -36.084572    41.667801    -47.367035    -43.003365    -18.259705    -30.885168    -25.152037    -7.338269    -0.719428    0.679756    47.055866    -17.980341    79.854652    -12.200658    -43.217896    99.535843    19.882618    -26.821733    31.158873    16.746117    -15.564048    6.498027    -12.964914    20.142790    0.786132    -4.696544    -0.946576    33.062511    0.000000    0.000000    0.000000    -11.574434    1.796822    -7.096299    5.849216    27.816626    -0.470574    3.592038    -22.273861    -14.351871    0.000000    0.000000    0.000000    
-2.014916    157.051392    -23.470207    -1.027112    -2.878044    -34.712101    3.877095    0.248482    2.375929    -1.247138    0.608196    0.800843    15.434946    2.339671    13.589939    -8.552606    3.384397    11.210190    -0.968798    9.541681    -11.295315    -39.615295    12.380711    -36.072094    41.652065    -47.364891    -43.029892    -18.239090    -30.884424    -25.138500    -7.340579    -0.726225    0.679520    47.057152    -17.981934    79.844917    -12.197900    -43.207123    99.543678    19.909704    -26.802406    31.160072    16.747751    -15.567502    6.495133    -12.968706    20.145870    0.783973    -4.685893    -0.950987    33.067009    0.000000    0.000000    0.000000    -11.571208    1.798391    -7.085959    5.855928    27.813520    -0.468688    3.585225    -22.275578    -14.382367    0.000000    0.000000    0.000000    
